{
	"accessors": [
		{
			"bufferView": 0,
			"componentType": 5121,
			"count": 36,
			"max": [
				23
			],
			"min": [
				0
			],
			"type": "SCALAR"
		},
		{
			"bufferView": 1,
			"componentType": 5126,
			"count": 24,
			"max": [
				0.8680564165115356,
				1.1104905605316162,
				1.1625404357910156
			],
			"min": [
				-1.1319444179534912,
				-1.0,
				-1.0000003576278687
			],
			"type": "VEC3"
		},
		{
			"bufferView": 2,
			"componentType": 5126,
			"count": 24,
			"max": [
				1.0,
				1.0,
				1.0
			],
			"min": [
				-0.9990478157997131,
				-0.9992493391036987,
				-0.9983351230621338
			],
			"type": "VEC3"
		},
		{
			"bufferView": 3,
			"componentType": 5126,
			"count": 24,
			"max": [
				0.9991235733032227,
				0.0076464503072202206,
				0.040366027504205704,
				1.0
			],
			"min": [
				-0.9999772310256958,
				-0.027382269501686096,
				-1.0,
				1.0
			],
			"type": "VEC4"
		},
		{
			"bufferView": 4,
			"componentType": 5126,
			"count": 24,
			"max": [
				0.7548436522483826,
				0.9999131308068172
			],
			"min": [
				8.686919318279251e-05,
				8.690357208251953e-05
			],
			"type": "VEC2"
		}
	],
	"asset": {
		"generator": "Khronos Blender glTF 2.0 exporter",
		"version": "2.0"
	},
	"bufferViews": [
		{
			"buffer": 0,
			"byteLength": 36,
			"byteOffset": 0,
			"target": 34963
		},
		{
			"buffer": 0,
			"byteLength": 288,
			"byteOffset": 36,
			"target": 34962
		},
		{
			"buffer": 0,
			"byteLength": 288,
			"byteOffset": 324,
			"target": 34962
		},
		{
			"buffer": 0,
			"byteLength": 384,
			"byteOffset": 612,
			"target": 34962
		},
		{
			"buffer": 0,
			"byteLength": 192,
			"byteOffset": 996,
			"target": 34962
		}
	],
	"buffers": [
		{
			"byteLength": 1188,
			"uri": "Materialbake2.bin"
		}
	],
	"images": [
		{
			"name": "RenderedTexture",
			"uri": "RenderedTexture.png"
		}
	],
	"materials": [
		{
			"name": "Material0",
			"pbrMetallicRoughness": {
				"baseColorFactor": [
					0.5,
					0.5,
					0.5,
					1.0
				],
				"baseColorTexture": {
					"index": 0,
					"texCoord": 1
				},
				"metallicFactor": 1,
				"roughnessFactor": 1,
				"metallicRoughnessTexture": {
					"index": 0,
					"texCoord": 1
				}
			},
			"normalTexture": {
				"scale": 2,
				"index": 0,
				"texCoord": 1
			},
			"emissiveFactor": [
				0.2,
				0.1,
				0.0
			]
		}
	],
	"meshes": [
		{
			"name": "Cube",
			"primitives": [
				{
					"attributes": {
						"NORMAL": 2,
						"POSITION": 1,
						"TANGENT": 3,
						"TEXCOORD_0": 4
					},
					"indices": 0,
					"material": 0
				}
			]
		}
	],
	"nodes": [
		{
			"name": "Camera",
			"rotation": [
				0.483536034822464,
				0.33687159419059753,
				-0.20870360732078552,
				0.7804827094078064
			],
			"translation": [
				7.481131553649902,
				5.34366512298584,
				6.5076398849487305
			]
		},
		{
			"mesh": 0,
			"name": "Cube"
		},
		{
			"name": "Lamp",
			"rotation": [
				0.16907575726509094,
				0.7558802962303162,
				-0.27217137813568115,
				0.570947527885437
			],
			"scale": [
				1.0,
				1.0,
				0.9999999403953552
			],
			"translation": [
				4.076245307922363,
				5.903861999511719,
				-1.0054539442062378
			]
		}
	],
	"samplers": [
		{}
	],
	"scene": 0,
	"scenes": [
		{
			"name": "Scene",
			"nodes": [
				1,
				2,
				0
			]
		}
	],
	"textures": [
		{
			"sampler": 0,
			"source": 0
		}
	]
}