{
    "accessors" : [
        {
            "bufferView" : 0,
            "componentType" : 5121,
            "count" : 6,
            "max" : [
                3
            ],
            "min" : [
                0
            ],
            "type" : "SCALAR"
        },
        {
            "bufferView" : 1,
            "componentType" : 5126,
            "count" : 4,
            "max" : [
                1.0,
                0.0,
                1.0
            ],
            "min" : [
                -1.0,
                0.0,
                -1.0
            ],
            "type" : "VEC3"
        },
        {
            "bufferView" : 2,
            "componentType" : 5126,
            "count" : 4,
            "max" : [
                0.0,
                1.0,
                -0.0
            ],
            "min" : [
                0.0,
                1.0,
                -0.0
            ],
            "type" : "VEC3"
        },
        {
            "bufferView" : 3,
            "componentType" : 5121,
            "count" : 36,
            "max" : [
                23
            ],
            "min" : [
                0
            ],
            "type" : "SCALAR"
        },
        {
            "bufferView" : 4,
            "componentType" : 5126,
            "count" : 24,
            "max" : [
                1.0000004768371582,
                1.0,
                1.0000005960464478
            ],
            "min" : [
                -1.0000003576278687,
                -1.0,
                -1.0000003576278687
            ],
            "type" : "VEC3"
        },
        {
            "bufferView" : 5,
            "componentType" : 5126,
            "count" : 24,
            "max" : [
                1.0,
                1.0,
                1.0
            ],
            "min" : [
                -1.0,
                -1.0,
                -1.0
            ],
            "type" : "VEC3"
        }
    ],
    "asset" : {
        "generator" : "Khronos Blender glTF 2.0 exporter",
        "version" : "2.0"
    },
    "bufferViews" : [
        {
            "buffer" : 0,
            "byteLength" : 6,
            "byteOffset" : 0,
            "target" : 34963
        },
        {
            "buffer" : 0,
            "byteLength" : 48,
            "byteOffset" : 8,
            "target" : 34962
        },
        {
            "buffer" : 0,
            "byteLength" : 48,
            "byteOffset" : 56,
            "target" : 34962
        },
        {
            "buffer" : 0,
            "byteLength" : 36,
            "byteOffset" : 104,
            "target" : 34963
        },
        {
            "buffer" : 0,
            "byteLength" : 288,
            "byteOffset" : 140,
            "target" : 34962
        },
        {
            "buffer" : 0,
            "byteLength" : 288,
            "byteOffset" : 428,
            "target" : 34962
        }
    ],
    "buffers" : [
        {
            "byteLength" : 716,
            "uri" : "emission.bin"
        }
    ],
    "materials" : [
        {
            "emissiveFactor" : [
                0.006154840812087059,
                1.0,
                0.0
            ],
            "name" : "Material.003",
            "pbrMetallicRoughness" : {}
        }
    ],
    "meshes" : [
        {
            "name" : "Plane",
            "primitives" : [
                {
                    "attributes" : {
                        "NORMAL" : 2,
                        "POSITION" : 1
                    },
                    "indices" : 0
                }
            ]
        },
        {
            "name" : "Cube",
            "primitives" : [
                {
                    "attributes" : {
                        "NORMAL" : 5,
                        "POSITION" : 4
                    },
                    "indices" : 3,
                    "material" : 0
                }
            ]
        }
    ],
    "nodes" : [
        {
            "mesh" : 1,
            "name" : "Cube"
        },
        {
            "mesh" : 0,
            "name" : "Plane",
            "scale" : [
                5.285731792449951,
                5.285731792449951,
                5.285731792449951
            ],
            "translation" : [
                -0.1557774543762207,
                -1.312273383140564,
                0.009727001190185547
            ]
        }
    ],
    "scene" : 0,
    "scenes" : [
        {
            "name" : "Scene",
            "nodes" : [
                1,
                0
            ]
        }
    ]
}
