{
    "accessors" : [
        {
            "bufferView" : 0,
            "componentType" : 5121,
            "count" : 408,
            "max" : [
                90
            ],
            "min" : [
                0
            ],
            "type" : "SCALAR"
        },
        {
            "bufferView" : 1,
            "componentType" : 5126,
            "count" : 91,
            "max" : [
                3.9223499298095703,
                0.9332079887390137,
                -0.08716076612472534
            ],
            "min" : [
                -3.9223504066467285,
                -1.9831777811050415,
                -2.3854260444641113
            ],
            "type" : "VEC3"
        },
        {
            "bufferView" : 2,
            "componentType" : 5126,
            "count" : 91,
            "max" : [
                0.9916684627532959,
                0.9964903593063354,
                -0.06787316501140594
            ],
            "min" : [
                -0.9916684627532959,
                -0.9921567440032959,
                -1.0
            ],
            "type" : "VEC3"
        },
        {
            "bufferView" : 3,
            "componentType" : 5123,
            "count" : 3714,
            "max" : [
                670
            ],
            "min" : [
                0
            ],
            "type" : "SCALAR"
        },
        {
            "bufferView" : 4,
            "componentType" : 5126,
            "count" : 671,
            "max" : [
                4.160025119781494,
                1.1424545049667358,
                5.547540664672852
            ],
            "min" : [
                -4.160025119781494,
                -2.272231101989746,
                -2.731494903564453
            ],
            "type" : "VEC3"
        },
        {
            "bufferView" : 5,
            "componentType" : 5126,
            "count" : 671,
            "max" : [
                0.999359130859375,
                0.999786376953125,
                0.999786376953125
            ],
            "min" : [
                -0.999359130859375,
                -0.999969482421875,
                -0.9926450252532959
            ],
            "type" : "VEC3"
        },
        {
            "bufferView" : 6,
            "componentType" : 5121,
            "count" : 582,
            "max" : [
                115
            ],
            "min" : [
                0
            ],
            "type" : "SCALAR"
        },
        {
            "bufferView" : 7,
            "componentType" : 5126,
            "count" : 116,
            "max" : [
                0.5769530534744263,
                0.6679052710533142,
                4.784902572631836
            ],
            "min" : [
                -0.5864514112472534,
                -0.17298264801502228,
                3.1448111534118652
            ],
            "type" : "VEC3"
        },
        {
            "bufferView" : 8,
            "componentType" : 5126,
            "count" : 116,
            "max" : [
                0.9924619197845459,
                0.999969482421875,
                0.9898068308830261
            ],
            "min" : [
                -0.9947202801704407,
                0.07742545753717422,
                -0.9341105222702026
            ],
            "type" : "VEC3"
        },
        {
            "bufferView" : 9,
            "componentType" : 5121,
            "count" : 24,
            "max" : [
                11
            ],
            "min" : [
                0
            ],
            "type" : "SCALAR"
        },
        {
            "bufferView" : 10,
            "componentType" : 5126,
            "count" : 12,
            "max" : [
                0.6472352147102356,
                -1.3496637344360352,
                2.588101625442505
            ],
            "min" : [
                -0.6472352147102356,
                -1.7174434661865234,
                2.588101625442505
            ],
            "type" : "VEC3"
        },
        {
            "bufferView" : 11,
            "componentType" : 5126,
            "count" : 12,
            "max" : [
                0.6862391829490662,
                0.7923825979232788,
                0.6099734306335449
            ],
            "min" : [
                -0.6862391829490662,
                -0.7923825979232788,
                0.6099734306335449
            ],
            "type" : "VEC3"
        },
        {
            "bufferView" : 12,
            "componentType" : 5121,
            "count" : 96,
            "max" : [
                19
            ],
            "min" : [
                0
            ],
            "type" : "SCALAR"
        },
        {
            "bufferView" : 13,
            "componentType" : 5126,
            "count" : 20,
            "max" : [
                0.9510565400123596,
                1.0,
                0.8090170621871948
            ],
            "min" : [
                -10.979300498962402,
                -1.0,
                -1.1189888715744019
            ],
            "type" : "VEC3"
        },
        {
            "bufferView" : 14,
            "componentType" : 5126,
            "count" : 20,
            "max" : [
                0.7638782858848572,
                0.5956907868385315,
                0.6498001217842102
            ],
            "min" : [
                -0.7638782858848572,
                -0.5956907868385315,
                -0.8031861186027527
            ],
            "type" : "VEC3"
        },
        {
            "bufferView" : 15,
            "componentType" : 5126,
            "count" : 2,
            "max" : [
                1.4166666666666665
            ],
            "min" : [
                0.0
            ],
            "type" : "SCALAR"
        },
        {
            "bufferView" : 16,
            "componentType" : 5126,
            "count" : 6,
            "max" : [
                0.0,
                0.0,
                85.49925231933594
            ],
            "min" : [
                -0.3036472201347351,
                -0.593244194984436,
                -0.0
            ],
            "type" : "VEC3"
        },
        {
            "bufferView" : 17,
            "componentType" : 5126,
            "count" : 35,
            "max" : [
                1.4166666666666665
            ],
            "min" : [
                0.0
            ],
            "type" : "SCALAR"
        },
        {
            "bufferView" : 18,
            "componentType" : 5126,
            "count" : 35,
            "max" : [
                0.7071068286895752,
                0.0,
                -0.0,
                0.7071068286895752
            ],
            "min" : [
                0.7071068286895752,
                0.0,
                -0.0,
                0.7071068286895752
            ],
            "type" : "VEC4"
        },
        {
            "bufferView" : 19,
            "componentType" : 5126,
            "count" : 2,
            "max" : [
                1.4166666666666665
            ],
            "min" : [
                0.0
            ],
            "type" : "SCALAR"
        },
        {
            "bufferView" : 20,
            "componentType" : 5126,
            "count" : 6,
            "max" : [
                0.0,
                0.0,
                0.0
            ],
            "min" : [
                -0.06166711449623108,
                -0.42062899470329285,
                -0.06166711449623108
            ],
            "type" : "VEC3"
        }
    ],
    "animations" : [
        {
            "channels" : [
                {
                    "sampler" : 0,
                    "target" : {
                        "node" : 1,
                        "path" : "translation"
                    }
                },
                {
                    "sampler" : 1,
                    "target" : {
                        "node" : 1,
                        "path" : "rotation"
                    }
                },
                {
                    "sampler" : 2,
                    "target" : {
                        "node" : 1,
                        "path" : "scale"
                    }
                }
            ],
            "name" : "CylinderAction",
            "samplers" : [
                {
                    "input" : 15,
                    "interpolation" : "CUBICSPLINE",
                    "output" : 16
                },
                {
                    "input" : 17,
                    "interpolation" : "LINEAR",
                    "output" : 18
                },
                {
                    "input" : 19,
                    "interpolation" : "CUBICSPLINE",
                    "output" : 20
                }
            ]
        }
    ],
    "asset" : {
        "generator" : "Khronos Blender glTF 2.0 exporter",
        "version" : "2.0"
    },
    "bufferViews" : [
        {
            "buffer" : 0,
            "byteLength" : 408,
            "byteOffset" : 0,
            "target" : 34963
        },
        {
            "buffer" : 0,
            "byteLength" : 1092,
            "byteOffset" : 408,
            "target" : 34962
        },
        {
            "buffer" : 0,
            "byteLength" : 1092,
            "byteOffset" : 1500,
            "target" : 34962
        },
        {
            "buffer" : 0,
            "byteLength" : 7428,
            "byteOffset" : 2592,
            "target" : 34963
        },
        {
            "buffer" : 0,
            "byteLength" : 8052,
            "byteOffset" : 10020,
            "target" : 34962
        },
        {
            "buffer" : 0,
            "byteLength" : 8052,
            "byteOffset" : 18072,
            "target" : 34962
        },
        {
            "buffer" : 0,
            "byteLength" : 582,
            "byteOffset" : 26124,
            "target" : 34963
        },
        {
            "buffer" : 0,
            "byteLength" : 1392,
            "byteOffset" : 26708,
            "target" : 34962
        },
        {
            "buffer" : 0,
            "byteLength" : 1392,
            "byteOffset" : 28100,
            "target" : 34962
        },
        {
            "buffer" : 0,
            "byteLength" : 24,
            "byteOffset" : 29492,
            "target" : 34963
        },
        {
            "buffer" : 0,
            "byteLength" : 144,
            "byteOffset" : 29516,
            "target" : 34962
        },
        {
            "buffer" : 0,
            "byteLength" : 144,
            "byteOffset" : 29660,
            "target" : 34962
        },
        {
            "buffer" : 0,
            "byteLength" : 96,
            "byteOffset" : 29804,
            "target" : 34963
        },
        {
            "buffer" : 0,
            "byteLength" : 240,
            "byteOffset" : 29900,
            "target" : 34962
        },
        {
            "buffer" : 0,
            "byteLength" : 240,
            "byteOffset" : 30140,
            "target" : 34962
        },
        {
            "buffer" : 0,
            "byteLength" : 8,
            "byteOffset" : 30380
        },
        {
            "buffer" : 0,
            "byteLength" : 72,
            "byteOffset" : 30388
        },
        {
            "buffer" : 0,
            "byteLength" : 140,
            "byteOffset" : 30460
        },
        {
            "buffer" : 0,
            "byteLength" : 560,
            "byteOffset" : 30600
        },
        {
            "buffer" : 0,
            "byteLength" : 8,
            "byteOffset" : 31160
        },
        {
            "buffer" : 0,
            "byteLength" : 72,
            "byteOffset" : 31168
        }
    ],
    "buffers" : [
        {
            "byteLength" : 31240,
            "uri" : "Spaceship_shooting_animation.bin"
        }
    ],
    "materials" : [
        {
            "alphaMode" : "BLEND",
            "name" : "Cannon emissions",
            "pbrMetallicRoughness" : {
                "baseColorFactor" : [
                    0.019856743810426347,
                    0.2514144696506033,
                    0.640000066757203,
                    1.0
                ],
                "metallicFactor" : 0.0
			},
			"emissiveFactor": [ 0.2, 0.1, 0.0 ]
        },
        {
            "name" : "cockpit",
            "pbrMetallicRoughness" : {
                "baseColorFactor" : [
                    0.0,
                    0.0,
                    0.0,
                    1.0
                ],
                "metallicFactor" : 1.0
            }
        },
        {
            "alphaMode" : "BLEND",
            "name" : "ENGINE EMISSIONS",
            "pbrMetallicRoughness" : {
                "baseColorFactor" : [
                    0.019856743810426347,
                    0.2514144696506033,
                    0.640000066757203,
                    1.0
                ],
				"metallicFactor" : 1.0,
                "roughnessFactor" : 1.0
				
            },
			"emissiveFactor": [ 1, 1, 1.0 ]
        },
        {
            "emissiveFactor" : [
                0.24820929393172264,
                0.342680823802948,
                0.800000715255737
            ],
            "name" : "lazer",
            "pbrMetallicRoughness" : {
                "baseColorFactor" : [
                    0.019856743810426347,
                    0.2514144696506033,
                    0.640000066757203,
                    1.0
                ],
                "metallicFactor" : 0.0
            }
        },
        {
            "name" : "metal",
            "pbrMetallicRoughness" : {
                "baseColorFactor" : [
                    0.221767962303280264,
                    0.921767962303280264,
                    0.521767962303280264,
                    0.5
                ],
                "metallicFactor" : 0.96,
                "roughnessFactor": 0.05
            }
        }
    ],
    "meshes" : [
        {
            "name" : "Cube.001",
            "primitives" : [
                {
                    "attributes" : {
                        "NORMAL" : 2,
                        "POSITION" : 1
                    },
                    "indices" : 0,
                    "material" : 2
                },
                {
                    "attributes" : {
                        "NORMAL" : 5,
                        "POSITION" : 4
                    },
                    "indices" : 3,
                    "material" : 4
                },
                {
                    "attributes" : {
                        "NORMAL" : 8,
                        "POSITION" : 7
                    },
                    "indices" : 6,
                    "material" : 1
                },
                {
                    "attributes" : {
                        "NORMAL" : 11,
                        "POSITION" : 10
                    },
                    "indices" : 9,
                    "material" : 0
                }
            ]
        },
        {
            "name" : "Cylinder",
            "primitives" : [
                {
                    "attributes" : {
                        "NORMAL" : 14,
                        "POSITION" : 13
                    },
                    "indices" : 12,
                    "material" : 3
                }
            ]
        }
    ],
    "nodes" : [
        {
            "mesh" : 0,
            "name" : "Cube",
            "scale" : [
                0.6147769093513489,
                0.6147769093513489,
                0.6147769093513489
            ],
            "translation" : [
                0.0,
                0.33431369066238403,
                -0.3788888454437256
            ]
        },
        {
            "mesh" : 1,
            "name" : "Cylinder",
            "rotation" : [
                0.7071068286895752,
                0.0,
                -0.0,
                0.7071068286895752
            ],
            "scale" : [
                -0.06166711449623108,
                -0.42062899470329285,
                -0.06166711449623108
            ],
            "translation" : [
                -0.3036472201347351,
                -0.593244194984436,
                1.636078953742981
            ]
        }
    ],
    "scene" : 0,
    "scenes" : [
        {
            "name" : "Scene",
            "nodes" : [
                1,
                0
            ]
        }
    ]
}
